# xmcd CD database file
#
# Track frame offsets:
#	172
#	12165
#	23410
#	34865
#	46732
#	58340
#	69492
#	79982
#	91840
#	102930
#
# Disc length: 1549 seconds
#
# Revision: 0
# Processed by: cddbd v1.5.2PL0 Copyright (c) Steve Scherf et al.
# Submitted via: CdAid (MTCDDB.DLL V2003.12.21)
#
DISCID=73060b0a
DTITLE=Kitty Wells - Inducted Into The Hall Of Fame 1976
DYEAR=1999
DGENRE=Country
TTITLE0=It Wasn't God Who Made Honky Tonk Angels
TTITLE1=Left To Right
TTITLE2=This White Circle On My Finger
TTITLE3=I Gave My Wedding Dress Away
TTITLE4=She's No Angel
TTITLE5=Heart Break U.S.A.
TTITLE6=Searching (For Someone Like You)
TTITLE7=Amigo's Guitar
TTITLE8=Meanwhile Down At Joe's
TTITLE9=I Don't Claim To Be An Angel
EXTD=ID3G:   2 YEAR: 1999
EXTT0=
EXTT1=
EXTT2=
EXTT3=
EXTT4=
EXTT5=
EXTT6=
EXTT7=
EXTT8=
EXTT9=
PLAYORDER=
